<svg xmlns="http://www.w3.org/2000/svg" fill="none" viewBox="0 0 32 32"><g clip-path="url(#clip0_913_239)"><path fill="#E00000" d="M24.1 3.2l2 .2L27.6 5l.1 2.2-2.8 3-1.7-.3-.8.8c.6 1 1 2 1 3 0 2.7-1.8 5-4 5.5v1.2c0 4.4-3.3 8-7.4 8-5.5 0-9.6-6.6-6-12.7 2.2-2.5 4.5-3.3 6.8-3A5.4 5.4 0 0 1 18 8a5 5 0 0 1 2 .5h.2l.6.4.7-.6-.2-2.2L24 3zM18 10.4c-1.7 0-3 1.4-3 3.3v1.8l-1.5-.4-1.5-.3c-4 0-7 5-3.8 9.5 4.3 3.5 9 .3 9-4l-.3-1.8-.5-1.6H18c1.7 0 3-1.4 3-3.2 0-.5 0-1-.2-1.4l-3.4 3.5-1.3-.2-.3-1.4 3.4-3.6a3 3 0 0 0-1.2-.2zm-6 6.5a3 3 0 0 1 3 3.1 3 3 0 0 1-3 3c-1.5 0-2.8-1.3-2.8-3s1.3-3 3-3zM25 5.6L23.5 7v.2l.3.3h.2l1.3-1.3V6l-.3-.3z"/><path fill="#F7BABA" d="M8.8 20c0-2 1.5-3.5 3.3-3.5 1.8 0 3.3 1.6 3.3 3.5 0 2-1.5 3.5-3.3 3.5-1.8 0-3.3-1.6-3.3-3.5z"/></g><defs><clipPath id="clip0_913_239"><path fill="#fff" d="M4.6 4H28v24H4.6V4z"/></clipPath></defs></svg>